<?xml version='1.0' encoding='UTF-8'?>
<mxfile version="1.0" encoding="UTF-8"><diagram name="Page-1" id="12345"><mxGraphModel dx="1050" dy="522" grid="1" gridSize="10" guides="1" tooltips="1" connect="1" arrows="1" fold="1" page="1" pageScale="1" pageWidth="827" pageHeight="1169"><root><mxCell id="0" /><mxCell id="1" parent="0" /><mxCell id="1" value="Customer" style="shape=rectangle;whiteSpace=wrap;html=1;" vertex="1"><mxGeometry x="100" y="100" width="120" height="60" /></mxCell><mxCell id="2" value="Order Processing" style="rounded=1;whiteSpace=wrap;html=1;" vertex="1"><mxGeometry x="250" y="100" width="120" height="60" /></mxCell><mxCell id="conn_1_2" style="endArrow=classic;html=1;" edge="1" source="1" target="2"><mxGeometry relative="1" /></mxCell><mxCell id="3" value="Order Management System" style="shape=rectangle;whiteSpace=wrap;html=1;" vertex="1"><mxGeometry x="400" y="100" width="120" height="60" /></mxCell></root></mxGraphModel></diagram></mxfile>